<?xml version="1.0" encoding="utf-8"?>
<!-- Generator: Adobe Illustrator 22.0.1, SVG Export Plug-In . SVG Version: 6.00 Build 0)  -->
<svg version="1.1" xmlns="http://www.w3.org/2000/svg" xmlns:xlink="http://www.w3.org/1999/xlink" x="0px" y="0px" width="3542px"
	 height="1144px" viewBox="0 0 3542 1144" style="enable-background:new 0 0 3542 1144;" xml:space="preserve">
<style type="text/css">
	.st0{fill:#322D63;}
	.st1{opacity:0.4;fill:#121223;}
	.st2{fill:none;}
	.st3{fill:#121223;}
</style>
<g id="bg">
	<rect x="-2" y="0" class="st0" width="3545.9" height="1144"/>
	<polygon class="st1" points="1517.1,-804.2 1552.3,-882.7 1696.9,-882.7 1779.5,-824.8 1831.2,-843.4 1845.7,-897.2 1990.3,-917.2 
		2035.8,-824.2 2122.6,-824.2 2135,-853.1 2215.5,-855.2 2234.1,-836.6 2277.5,-850.7 2244.5,-882.7 2277.5,-919.9 2335.4,-862 
		2372.6,-876.5 2411.8,-822.8 2490.4,-791.8 2562.7,-855.8 2632.9,-800 2680.5,-845.5 2721.8,-814.5 2754.9,-837.2 2794.1,-810.4 
		2860.2,-878.6 2932.6,-837.2 2932.6,-802.1 2986.3,-791.8 3006.9,-829 2990.4,-855.8 3052.4,-919.9 3118.5,-855.8 3143.3,-876.5 
		3176.4,-845.5 3153.7,-840.7 3195,-811.8 3238.4,-833.1 3201.2,-853 3219.8,-871.6 3238.4,-853 3259,-871.6 3238,-899.1 
		3326.9,-950.8 3395.4,-861.3 3416.1,-881.9 3440.9,-861.3 3440.9,-496.3 1517.1,-496.3 	"/>
	<polygon class="st1" points="1918.7,-17.6 1617,-17.6 -5,-17.6 -5,347.3 19.8,368 40.5,347.3 109,436.9 197.8,385.2 176.8,357.7 
		197.5,339.1 216.1,357.7 234.7,339.1 197.5,299.2 240.9,277.8 282.2,306.8 292.6,362.5 317.3,341.9 445.5,341.9 428.9,315 
		449.6,277.8 503.3,288.2 503.3,323.3 575.6,364.6 641.8,296.4 681,323.3 714.1,300.6 755.4,331.6 802.9,286.1 873.2,341.9 
		945.5,277.8 1024,308.8 1063.3,362.5 1100.5,348.1 1158.3,405.9 1191.4,368.7 1158.3,336.7 1201.7,322.6 1220.3,341.2 
		1300.9,339.2 1313.3,310.2 1400.1,310.2 1445.6,403.2 1590.2,383.2 1604.7,329.5 1630.4,320.2 1652.1,368.7 1739,308.7 
		1796.8,368.7 1883.6,368.7 1905.3,320.2 1931.1,329.5 1945.5,383.2 2090.2,403.2 2135.6,310.2 2222.4,310.2 2234.8,339.2 
		2315.4,341.2 2334,322.6 2377.4,336.7 2344.3,368.7 2377.4,405.9 2435.3,348.1 2472.5,362.5 2511.7,308.8 2590.2,277.8 
		2662.6,341.9 2732.8,286.1 2780.3,331.6 2821.7,300.6 2854.7,323.3 2894,296.4 2960.1,364.6 3032.4,323.3 3032.4,288.2 
		3086.2,277.8 3106.8,315 3090.3,341.9 3152.3,405.9 3218.4,341.9 3243.2,362.5 3276.3,331.6 3253.5,306.8 3294.9,277.8 
		3338.2,299.2 3301.1,339.1 3319.7,357.7 3338.2,339.1 3358.9,357.7 3337.9,385.2 3426.8,436.9 3495.3,347.3 3516,368 3540.7,347.3 
		3540.7,-17.6 	"/>
	<polygon class="st1" points="3486.6,827 3441.2,734 3296.5,754 3282.1,807.7 3256.3,817 3234.6,768.5 3147.8,768.5 3090,828.5 
		3003.1,768.5 2981.4,817 2955.7,807.7 2941.2,754 2796.6,734 2751.1,827 2664.3,827 2651.9,798.1 2571.3,796 2552.7,814.6 
		2509.3,800.5 2542.4,768.5 2509.3,731.3 2451.5,789.1 2414.3,774.7 2375,828.4 2296.5,859.4 2276.7,841.9 2276.7,789.9 2252,769.2 
		2231.3,789.9 2162.8,700.4 2073.9,752 2094.9,779.6 2074.2,798.2 2055.7,779.6 2037.1,798.2 2074.2,838.1 2030.9,859.4 
		1989.5,830.5 2012.3,805.7 1979.2,774.7 1954.4,795.3 1888.3,731.3 1826.3,795.3 1842.8,822.2 1822.2,859.4 1768.4,849.1 
		1768.4,813.9 1696.1,772.6 1630,840.8 1590.7,813.9 1557.7,836.7 1516.3,805.7 1468.8,851.1 1398.6,795.3 1326.2,859.4 
		1247.7,828.4 1208.5,774.7 1171.3,789.1 1113.4,731.3 1080.3,768.5 1113.4,800.5 1070,814.6 1051.4,796 970.8,798.1 958.4,827 
		937,827 937,839.4 862,898.9 811,850.1 766.7,883.4 731.2,859 689.1,887.8 618.1,814.7 540.5,859 540.5,896.7 482.8,907.8 
		460.7,867.9 478.4,839 340.9,839 314.3,816.9 303.2,876.7 258.9,907.8 212.3,884.9 252.2,842.1 232.3,822.1 212.3,842.1 
		190.1,822.1 212.7,792.6 117.3,737.1 43.8,833.2 21.6,811 -5,833.2 -5,1154.9 963,1154.9 2257.9,1154.9 2276.7,1154.9 
		3542.2,1154.9 3542.2,827 	"/>
	<polygon class="st1" points="1519,-1417 1554.1,-1372.4 1698.8,-1372.4 1781.4,-1405.2 1833.1,-1394.7 1847.5,-1364.2 
		1992.2,-1352.8 2037.6,-1405.6 2124.4,-1405.6 2136.8,-1389.2 2217.4,-1388 2236,-1398.6 2279.4,-1390.6 2246.3,-1372.4 
		2279.4,-1351.3 2337.3,-1384.1 2374.5,-1375.9 2413.7,-1406.4 2492.2,-1424 2564.6,-1387.6 2634.8,-1419.3 2682.3,-1393.5 
		2723.7,-1411.1 2756.7,-1398.2 2796,-1413.4 2862.1,-1374.7 2934.4,-1398.2 2934.4,-1418.1 2988.2,-1424 3008.8,-1402.9 
		2992.3,-1387.6 3054.3,-1351.3 3120.4,-1387.6 3145.2,-1375.9 3178.3,-1393.5 3155.5,-1407.6 3196.9,-1424 3240.2,-1411.9 
		3203.1,-1389.2 3221.7,-1378.7 3240.2,-1389.2 3260.9,-1378.7 3239.9,-1363.1 3328.8,-1333.8 3397.3,-1384.5 3418,-1372.8 
		3442.7,-1384.5 3442.7,-1591.6 1519,-1591.6 	"/>
	<rect x="-35" y="-33" class="st2" width="1920" height="1079.6"/>
	<polygon class="st3" points="1554,-1515.8 1589.1,-1437.3 1733.8,-1437.3 1816.4,-1495.1 1868.1,-1476.5 1882.5,-1422.8 
		2027.2,-1402.8 2072.6,-1495.8 2159.4,-1495.8 2171.8,-1466.8 2252.4,-1464.8 2271,-1483.4 2314.4,-1469.3 2281.3,-1437.3 
		2314.4,-1400.1 2372.3,-1457.9 2409.5,-1443.5 2448.7,-1497.2 2527.2,-1528.2 2599.6,-1464.1 2669.8,-1519.9 2717.3,-1474.4 
		2758.7,-1505.4 2791.7,-1482.7 2831,-1509.6 2897.1,-1441.4 2969.4,-1482.7 2969.4,-1517.8 3023.2,-1528.2 3043.8,-1491 
		3027.3,-1464.1 3089.3,-1400.1 3155.4,-1464.1 3180.2,-1443.5 3213.3,-1474.4 3190.5,-1499.2 3231.9,-1528.2 3275.2,-1506.8 
		3238.1,-1466.9 3256.7,-1448.3 3275.2,-1466.9 3295.9,-1448.3 3274.9,-1420.8 3363.8,-1369.1 3432.3,-1458.7 3453,-1438 
		3477.7,-1458.7 3477.7,-1573.6 1554,-1573.6 	"/>
	<polygon class="st1" points="7.3,175.3 111.7,175.3 171.3,133.5 208.6,146.9 219,185.7 323.4,200.1 356.2,133 418.8,133 
		427.8,153.9 485.9,155.4 499.3,142 530.6,152.2 506.8,175.3 530.6,202.1 572.4,160.4 599.2,170.8 627.5,132 684.2,109.7 
		736.4,155.9 787.1,115.6 821.4,148.4 875,142.5 903.4,123.1 951.1,172.3 1003.2,142.5 1056.9,136.5 1045,155.9 1089.7,202.1 
		1137.4,155.9 1155.3,170.8 1156.7,169.4 1159.3,175.3 1232.7,175.3 1223.7,187.1 1287.8,224.4 1326,174.5 1326.3,175.3 
		1368.2,175.3 1371,185.7 1475.4,200.1 1505.3,138.9 1527.6,146.9 1538,185.7 1642.4,200.1 1682.6,202.1 1724.4,160.4 1849.6,152.2 
		1825.8,175.3 1849.6,202.1 1918.2,170.8 1946.5,132 1953.4,129.3 1973.4,148.4 2003.2,126.1 2055.4,155.9 2103.1,172.3 
		2149.8,140.9 2241.7,202.1 2276,168.9 2293.2,159 2307.3,170.8 2349.1,153.9 2362.5,167.3 2375.7,187.1 2439.8,224.4 2478,174.5 
		2478.3,175.3 2551.7,175.3 2542.7,187.1 2606.8,224.4 2656.2,159.8 2671.1,174.7 2684.2,163.8 2690,185.7 2794.4,200.1 2827.2,133 
		2889.8,133 2898.8,153.9 2956.9,155.4 3001.6,152.2 2977.8,175.3 3001.6,202.1 3043.4,160.4 3070.2,170.8 3098.5,132 3155.2,109.7 
		3207.4,155.9 3258.1,115.6 3292.4,148.4 3322.2,126.1 3422.1,172.3 3474.2,142.5 3474.2,117.1 3513,109.7 3527.9,136.5 3516,155.9 
		3560.7,202.1 3608.4,155.9 3626.3,170.8 3650.2,148.4 3633.8,145 3663.6,124.1 3694.9,139.5 3668.1,153.9 3681.5,167.3 
		3694.9,153.9 3709.8,167.3 3694.7,187.1 3758.8,224.4 3808.2,159.8 3823.1,174.7 3841,159.8 3841,-103.5 2689,-103.5 2522,-103.5 
		2453,-103.5 1370,-103.5 1301,-103.5 1134,-103.5 -18,-103.5 -18,118.6 	"/>
	<polygon class="st1" points="3815.7,985.6 3711.3,985.6 3651.7,1027.4 3614.4,1014 3604,975.2 3499.6,960.8 3466.8,1027.9 
		3404.2,1027.9 3395.2,1007 3337.1,1005.5 3323.7,1018.9 3292.4,1008.7 3316.2,985.6 3292.4,958.8 3250.6,1000.5 3223.8,990.1 
		3195.5,1028.9 3138.8,1051.2 3086.6,1005 3035.9,1045.3 3001.6,1012.5 2948,1018.4 2919.6,1037.8 2871.9,988.6 2819.8,1018.4 
		2766.1,1024.4 2778,1005 2733.3,958.8 2685.6,1005 2667.7,990.1 2666.3,991.4 2663.7,985.6 2590.3,985.6 2599.3,973.8 
		2535.2,936.5 2497,986.4 2496.7,985.6 2454.8,985.6 2452,975.2 2347.6,960.8 2317.7,1022 2295.4,1014 2285,975.2 2180.6,960.8 
		2140.4,958.8 2098.6,1000.5 1973.4,1008.7 1997.2,985.6 1973.4,958.8 1904.8,990.1 1876.5,1028.9 1869.6,1031.6 1849.6,1012.5 
		1819.8,1034.8 1767.6,1005 1719.9,988.6 1673.2,1020 1581.3,958.8 1547,992 1529.8,1001.8 1515.7,990.1 1473.9,1007 1460.5,993.6 
		1447.3,973.8 1383.2,936.5 1345,986.4 1344.7,985.6 1271.3,985.6 1280.3,973.8 1216.2,936.5 1166.8,1001.1 1151.9,986.2 
		1138.8,997 1133,975.2 1028.6,960.8 995.8,1027.9 933.2,1027.9 924.2,1007 866.1,1005.5 821.4,1008.7 845.2,985.6 821.4,958.8 
		779.6,1000.5 752.8,990.1 724.5,1028.9 667.8,1051.2 615.6,1005 564.9,1045.3 530.6,1012.5 500.8,1034.8 400.9,988.6 348.8,1018.4 
		348.8,1043.8 310,1051.2 295.1,1024.4 307,1005 262.3,958.8 214.6,1005 196.7,990.1 172.8,1012.5 189.2,1015.9 159.4,1036.8 
		128.1,1021.4 154.9,1007 141.5,993.6 128.1,1007 113.2,993.6 128.3,973.8 64.2,936.5 14.8,1001.1 -0.1,986.2 -18,1001.1 
		-18,1264.4 1134,1264.4 1301,1264.4 1370,1264.4 2453,1264.4 2522,1264.4 2689,1264.4 3841,1264.4 3841,1042.3 	"/>
</g>
<g id="Layer_1">
</g>
<g id="pipes">
</g>
<g id="Layer_6">
</g>
<g id="Layer_5">
</g>
<g id="Layer_4">
</g>
</svg>
