<svg enable-background="new 0 0 32.3 51.5" viewBox="0 0 32.3 51.5" xmlns="http://www.w3.org/2000/svg"><circle cx="16.2" cy="35.3" fill="#dadada" r="16.2"/><path d="m27.6 46.7c6.3-6.3 6.3-16.5 0-22.9s-29.2 16.6-22.9 22.9 16.6 6.3 22.9 0z" fill="#adadad"/><path d="m10.2 18.9h12.2v1.9h-12.2z" fill="#8e8e8e"/><path d="m12.6 0 8.4 19.7h-9.7l-8.4-19.7" fill="#d5d5d5"/><path d="m9.6 18.3v3h13v-3zm12 1.6h-10.8v-.7h10.8z" fill="#dadada"/><path d="m19.7 0-8.4 19.7h9.7l8.4-19.7" fill="#f4f4f4"/><path d="m20.9 41.1c-.3.6-.8 1.2-1.4 1.7s-1.2.9-2 1.3c-.7.3-1.5.5-2.3.5-.5 0-.9-.1-1.3-.2s-.8-.3-1.1-.5-.5-.5-.7-.8-.3-.7-.3-1.2c0-.3.1-.6.2-1l3.5-.2c0 .3.1.5.2.6s.3.2.5.2.4 0 .6-.1.4-.2.6-.4c.2-.1.3-.3.4-.5s.2-.4.2-.6c0-.3-.2-.6-.5-.9s-.8-.4-1.5-.4c-.5 0-1 0-1.5.1s-.9.1-1.3.2l.4-3c.4-.3.8-.5 1.2-.8s.8-.6 1.2-.8l1.2-.9-3.2-.1.2-3.4c1.2-.1 2.3-.1 3.4-.2h1.4c.5 0 .9 0 1.3-.1h1.1.8l-.5 4.3-4 2.1c.7.1 1.2.3 1.7.5s.9.5 1.2.8.5.6.7.9c.1.3.2.7.2 1.1-.1.5-.3 1.1-.6 1.8z" fill="#848484"/><path d="m19.8 38.8c-.3.6-.8 1.2-1.4 1.7s-1.2.9-2 1.3c-.7.3-1.5.5-2.3.5-.5 0-.9-.1-1.3-.2s-.8-.3-1.1-.5-.5-.5-.7-.8-.3-.7-.3-1.2c0-.3.1-.6.2-1l3.5-.2c0 .3.1.5.2.6s.3.2.5.2.4 0 .6-.1.4-.2.6-.4c.2-.1.3-.3.4-.5s.2-.4.2-.6c0-.3-.2-.6-.5-.9s-.8-.4-1.5-.4c-.5 0-1 0-1.5.1s-.9.1-1.3.2l.4-3c.4-.3.8-.5 1.2-.8s.8-.6 1.2-.8l1.2-.9-3.2.1.2-3.4c1.2-.1 2.3-.1 3.4-.2h1.4c.5 0 .9 0 1.3-.1s.8 0 1.1 0h.8l-.5 4.3-4 2.1c.7.1 1.2.3 1.7.5s.9.5 1.2.8.5.6.7.9c.1.3.2.7.2 1.1-.1.4-.3 1-.6 1.6z" fill="#fff"/><path d="m16.2 22.2c7.2 0 13.1 5.9 13.1 13.1s-5.9 13.1-13.1 13.1-13.1-5.9-13.1-13.1 5.9-13.1 13.1-13.1m0-1.2c-7.9 0-14.3 6.4-14.3 14.3s6.4 14.3 14.3 14.3 14.3-6.4 14.3-14.3c-.1-7.9-6.5-14.3-14.3-14.3z" fill="#909090"/></svg>