<?xml version="1.0" encoding="utf-8"?>
<!-- Generator: Adobe Illustrator 22.0.1, SVG Export Plug-In . SVG Version: 6.00 Build 0)  -->
<svg version="1.1" id="Layer_1" xmlns="http://www.w3.org/2000/svg" xmlns:xlink="http://www.w3.org/1999/xlink" x="0px" y="0px"
	 viewBox="0 0 32.3 51.5" style="enable-background:new 0 0 32.3 51.5;" xml:space="preserve">
<style type="text/css">
	.st0{fill:#D3D3D3;}
	.st1{fill:#9E9E9E;}
	.st2{fill:#7C7C7C;}
	.st3{fill:#CCCCCC;}
	.st4{fill:#F2F2F2;}
	.st5{fill:#7F7F7F;}
	.st6{fill:#727272;}
	.st7{fill:#FFFFFF;}
</style>
<g>
	<circle class="st0" cx="16.1" cy="35.3" r="16.2"/>
</g>
<path class="st1" d="M27.6,46.7c6.3-6.3,6.3-16.5,0-22.9S-1.6,40.4,4.7,46.7S21.3,53,27.6,46.7z"/>
<polyline class="st2" points="10.2,18.9 22.3,18.9 22.3,20.8 10.2,20.8 10.2,18.9 "/>
<g>
	<g>
		<polygon class="st3" points="21,19.8 11.3,19.8 2.9,0 12.6,0 		"/>
	</g>
</g>
<g>
	<g>
		<path class="st0" d="M9.6,18.3v3h13v-3H9.6z M21.5,20H10.7v-0.7h10.8V20z"/>
	</g>
</g>
<g>
	<polygon class="st4" points="11.3,19.8 21,19.8 29.4,0 19.7,0 	"/>
</g>
<g>
	<g>
		<path class="st5" d="M16.1,22.2c7.2,0,13.1,5.9,13.1,13.1s-5.9,13.1-13.1,13.1S3.1,42.5,3.1,35.3S8.9,22.2,16.1,22.2 M16.1,21.1
			c-7.9,0-14.3,6.4-14.3,14.3s6.4,14.3,14.3,14.3c7.9,0,14.3-6.4,14.3-14.3S24,21.1,16.1,21.1L16.1,21.1z"/>
	</g>
</g>
<path class="st6" d="M12.4,42.7l0.3-2.4c0-0.4,0.2-0.8,0.6-1.2c0.3-0.4,0.8-0.9,1.2-1.3c0.5-0.4,1-0.9,1.5-1.3
	c0.6-0.4,1.1-0.8,1.5-1.2c0.5-0.4,0.9-0.7,1.2-1.1c0.3-0.3,0.5-0.6,0.5-0.8c0-0.4-0.1-0.7-0.2-0.9s-0.3-0.3-0.5-0.3s-0.4,0-0.6,0.1
	s-0.3,0.2-0.4,0.4s-0.1,0.3-0.2,0.5s-0.1,0.4-0.1,0.5v0.2V34c-0.3,0-0.7,0.1-1.1,0.1c-0.3,0-0.7,0.1-1.1,0.1s-0.8,0.1-1.1,0.1
	c0-0.1,0-0.2,0-0.3s0-0.2,0-0.3c0-0.7,0.1-1.4,0.4-2s0.7-1.1,1.1-1.5s1-0.7,1.6-0.9s1.2-0.3,1.8-0.3c0.5,0,0.9,0.1,1.4,0.2
	c0.4,0.2,0.8,0.4,1.2,0.7c0.3,0.3,0.6,0.7,0.8,1.2s0.3,1,0.3,1.7c0,0.6-0.2,1.2-0.5,1.8s-0.8,1.2-1.4,1.8s-1.3,1.1-2.1,1.7
	c-0.8,0.5-1.7,1.1-2.6,1.6h1.3c0.5,0,1.1-0.1,1.7-0.1s1.2-0.1,1.8-0.1l-0.1,2.6c-0.3,0-0.6,0.1-1,0.1s-0.8,0.1-1.2,0.1
	s-0.9,0.1-1.3,0.1c-0.5,0-0.9,0.1-1.3,0.1C14.6,42.5,13.5,42.6,12.4,42.7z"/>
<path class="st7" d="M11,41.3l0.3-2.4c0-0.4,0.2-0.8,0.6-1.2c0.3-0.4,0.8-0.9,1.2-1.3s1-0.9,1.5-1.3c0.6-0.4,1.1-0.8,1.5-1.2
	c0.5-0.4,0.9-0.7,1.2-1.1c0.3-0.3,0.5-0.6,0.5-0.8c0-0.4-0.1-0.7-0.2-0.9s-0.3-0.3-0.5-0.3s-0.4,0-0.6,0.1s-0.3,0.2-0.4,0.4
	s-0.1,0.3-0.2,0.5c0,0.2-0.1,0.4-0.1,0.5v0.2v0.1c-0.3,0-0.7,0.1-1.1,0.1c-0.3,0-0.7,0.1-1.1,0.1s-0.8,0.1-1.1,0.1
	c0-0.1,0-0.2,0-0.3s0-0.2,0-0.3c0-0.7,0.1-1.4,0.4-2s0.7-1.1,1.1-1.5c0.5-0.4,1-0.7,1.6-0.9s1.2-0.3,1.8-0.3c0.5,0,0.9,0.1,1.4,0.2
	c0.4,0.2,0.8,0.4,1.2,0.7c0.3,0.3,0.6,0.7,0.8,1.2s0.3,1,0.3,1.7c0,0.6-0.2,1.2-0.5,1.8s-0.8,1.2-1.4,1.8s-1.3,1.1-2.1,1.7
	c-0.8,0.5-1.7,1.1-2.6,1.6h1.3c0.5,0,1.1-0.1,1.7-0.1s1.2-0.1,1.8-0.1L19,40.9c-0.3,0-0.6,0.1-1,0.1s-0.8,0.1-1.2,0.1
	s-0.9,0.1-1.3,0.1c-0.5,0-0.9,0.1-1.3,0.1C13.2,41.1,12.1,41.2,11,41.3z"/>
</svg>
