<svg enable-background="new 0 0 32.3 51.5" viewBox="0 0 32.3 51.5" xmlns="http://www.w3.org/2000/svg"><circle cx="16.2" cy="35.3" fill="#ffb264" r="16.2"/><path d="m27.6 46.7c6.3-6.3 6.3-16.5 0-22.9s-29.2 16.6-22.9 22.9 16.6 6.3 22.9 0z" fill="#d67a00"/><path d="m10.2 18.9h12.2v1.9h-12.2z" fill="#b96700"/><path d="m12.6 0 8.4 19.7h-9.7l-8.4-19.7" fill="#d5d5d5"/><path d="m9.6 18.3v3h13v-3zm12 1.6h-10.8v-.7h10.8z" fill="#ffb264"/><path d="m19.7 0-8.4 19.7h9.7l8.4-19.7" fill="#f4f4f4"/><path d="m12.6 42.6.3-2.4c0-.4.2-.8.6-1.2.3-.4.8-.9 1.2-1.3.5-.4 1-.9 1.5-1.3.6-.4 1.1-.8 1.5-1.2.5-.4.9-.7 1.2-1.1.3-.3.5-.6.5-.8 0-.4-.1-.7-.2-.9s-.3-.3-.5-.3-.4 0-.6.1-.3.2-.4.4-.1.3-.2.5-.1.4-.1.5v.2.1c-.3 0-.7.1-1.1.1-.3 0-.7.1-1.1.1s-.8.1-1.1.1c0-.1 0-.2 0-.3s0-.2 0-.3c0-.7.1-1.4.4-2s.7-1.1 1.1-1.5 1-.7 1.6-.9 1.2-.3 1.8-.3c.5 0 .9.1 1.4.2.4.2.8.4 1.2.7.3.3.6.7.8 1.2s.3 1 .3 1.7c0 .6-.2 1.2-.5 1.8s-.8 1.2-1.4 1.8-1.3 1.1-2.1 1.7c-.8.5-1.7 1.1-2.6 1.6h1.3c.5 0 1.1-.1 1.7-.1s1.2-.1 1.8-.1l-.1 2.6c-.3 0-.6.1-1 .1s-.8.1-1.2.1-.9.1-1.3.1c-.5 0-.9.1-1.3.1-1.2 0-2.3.1-3.4.2z" fill="#b96700"/><path d="m11.2 41.2.3-2.4c0-.4.2-.8.6-1.2.3-.4.8-.9 1.2-1.3s1-.9 1.5-1.3c.6-.4 1.1-.8 1.5-1.2.5-.4.9-.7 1.2-1.1.3-.3.5-.6.5-.8 0-.4-.1-.7-.2-.9s-.3-.3-.5-.3-.4 0-.6.1-.3.2-.4.4-.1.3-.2.5c0 .2-.1.4-.1.5v.2.1c-.3 0-.7.1-1.1.1-.3 0-.7.1-1.1.1s-.8.1-1.1.1c0-.1 0-.2 0-.3s0-.2 0-.3c0-.7.1-1.4.4-2s.7-1.1 1.1-1.5c.5-.4 1-.7 1.6-.9s1.2-.3 1.8-.3c.5 0 .9.1 1.4.2.4.2.8.4 1.2.7.3.3.6.7.8 1.2s.3 1 .3 1.7c0 .6-.2 1.2-.5 1.8s-.8 1.2-1.4 1.8-1.3 1.1-2.1 1.7c-.8.5-1.7 1.1-2.6 1.6h1.3c.5 0 1.1-.1 1.7-.1s1.2-.1 1.8-.1l-.3 2.8c-.3 0-.6.1-1 .1s-.8.1-1.2.1-.9.1-1.3.1c-.5 0-.9.1-1.3.1-1-.2-2.1-.1-3.2 0z" fill="#fff"/><path d="m16.2 22.2c7.2 0 13.1 5.9 13.1 13.1s-5.9 13.1-13.1 13.1-13.1-5.9-13.1-13.1 5.9-13.1 13.1-13.1m0-1.2c-7.9 0-14.3 6.4-14.3 14.3s6.4 14.3 14.3 14.3 14.3-6.4 14.3-14.3-6.5-14.3-14.3-14.3z" fill="#b96700"/></svg>