<svg enable-background="new 0 0 32.3 51.5" viewBox="0 0 32.3 51.5" xmlns="http://www.w3.org/2000/svg"><circle cx="16.2" cy="35.3" fill="#ffeeaf" r="16.2"/><path d="m27.6 46.7c6.3-6.3 6.3-16.5 0-22.9s-29.2 16.6-22.9 22.9 16.6 6.3 22.9 0z" fill="#ffdf51"/><path d="m14.3 44.2c.3-1.3.6-2.6.8-3.9.1-.5.2-1.1.4-1.7.1-.6.2-1.2.4-1.8.1-.6.2-1.2.4-1.8.1-.6.2-1.2.3-1.7-.3 0-.7.1-1 .1s-.6.1-.9.1c-.3.1-.5.1-.7.1 0-.2.1-.5.1-.9.1-.4.1-.8.2-1.3s.1-1 .2-1.6c.3-.1.8-.2 1.4-.3.5-.1 1.2-.2 2-.3s1.9-.3 3.1-.5c-.3 1.3-.6 2.5-.8 3.7-.3 1.2-.5 2.4-.7 3.6s-.4 2.4-.6 3.6-.4 2.5-.6 3.7c-.3.1-.7.2-1.1.3s-.9.2-1.3.3c-.7.1-1.1.2-1.6.3z" fill="#bb9b00"/><path d="m13.1 43c.3-1.3.6-2.6.8-3.9.1-.5.2-1.1.4-1.7.1-.6.2-1.2.4-1.8.1-.6.2-1.2.4-1.8.1-.6.2-1.2.3-1.7-.3 0-.7.1-1 .1s-.6.1-.9.1c-.3.1-.5.1-.7.1 0-.2.1-.5.1-.9.1-.4.1-.8.2-1.3s.1-1 .2-1.6c.3-.1.8-.2 1.4-.3.5-.1 1.2-.2 2-.3s1.9-.3 3.1-.5c-.3 1.3-.6 2.5-.8 3.7-.3 1.2-.5 2.4-.7 3.6s-.4 2.4-.6 3.6-.4 2.5-.6 3.7c-.3.1-.7.2-1.1.3s-.9.2-1.3.3c-.7.1-1.1.2-1.6.3z" fill="#fff"/><path d="m10.2 18.9h12.2v1.9h-12.2z" fill="#d5a700"/><path d="m21 19.7h-9.7l-8.4-19.7h9.7z" fill="#d5d5d5"/><path d="m9.6 18.3v3h13v-3zm12 1.6h-10.8v-.7h10.8z" fill="#ffeeaf"/><path d="m11.3 19.7h9.7l8.4-19.7h-9.7z" fill="#f4f4f4"/><path d="m16.2 22.2c7.2 0 13.1 5.9 13.1 13.1s-5.9 13.1-13.1 13.1-13.1-5.9-13.1-13.1 5.9-13.1 13.1-13.1m0-1.2c-7.9 0-14.3 6.4-14.3 14.3s6.4 14.3 14.3 14.3 14.3-6.4 14.3-14.3-6.5-14.3-14.3-14.3z" fill="#ffb540"/></svg>