<?xml version="1.0" encoding="utf-8"?>
<!-- Generator: Adobe Illustrator 22.0.1, SVG Export Plug-In . SVG Version: 6.00 Build 0)  -->
<svg version="1.1" id="Layer_1" xmlns="http://www.w3.org/2000/svg" xmlns:xlink="http://www.w3.org/1999/xlink" x="0px" y="0px"
	 viewBox="0 0 32.3 51.5" style="enable-background:new 0 0 32.3 51.5;" xml:space="preserve">
<style type="text/css">
	.st0{fill:#FFB264;}
	.st1{fill:#D67A00;}
	.st2{fill:#B96700;}
	.st3{fill:#D5D5D5;}
	.st4{fill:#F4F4F4;}
	.st5{fill:#FFFFFF;}
</style>
<circle class="st0" cx="16.2" cy="35.3" r="16.2"/>
<path class="st1" d="M27.6,46.7c6.3-6.3,6.3-16.5,0-22.9S-1.6,40.4,4.7,46.7S21.3,53,27.6,46.7z"/>
<path class="st2" d="M10.2,18.9h12.2v1.9H10.2V18.9z"/>
<path class="st3" d="M12.6,0L21,19.7h-9.7L2.9,0"/>
<path class="st0" d="M9.6,18.3v3h13v-3H9.6z M21.6,19.9H10.8v-0.7h10.8V19.9z"/>
<path class="st4" d="M19.7,0l-8.4,19.7H21L29.4,0"/>
<path class="st2" d="M16.2,22.2c7.2,0,13.1,5.9,13.1,13.1s-5.9,13.1-13.1,13.1S3.1,42.5,3.1,35.3S9,22.2,16.2,22.2 M16.2,21
	C8.3,21,1.9,27.4,1.9,35.3s6.4,14.3,14.3,14.3s14.3-6.4,14.3-14.3S24,21,16.2,21z"/>
<g>
	<path class="st2" d="M20.7,41.4c-0.3,0.6-0.8,1.2-1.4,1.7s-1.2,0.9-2,1.3c-0.7,0.3-1.5,0.5-2.3,0.5c-0.5,0-0.9-0.1-1.3-0.2
		c-0.4-0.1-0.8-0.3-1.1-0.5s-0.5-0.5-0.7-0.8s-0.3-0.7-0.3-1.2c0-0.3,0.1-0.6,0.2-1l3.5-0.2c0,0.3,0.1,0.5,0.2,0.6s0.3,0.2,0.5,0.2
		c0.2,0,0.4,0,0.6-0.1s0.4-0.2,0.6-0.4c0.2-0.1,0.3-0.3,0.4-0.5s0.2-0.4,0.2-0.6c0-0.3-0.2-0.6-0.5-0.9c-0.3-0.3-0.8-0.4-1.5-0.4
		c-0.5,0-1,0-1.5,0.1s-0.9,0.1-1.3,0.2l0.4-3c0.4-0.3,0.8-0.5,1.2-0.8s0.8-0.6,1.2-0.8c0.4-0.3,0.8-0.6,1.2-0.9l-3.2,0.1l0.2-3.4
		c1.2-0.1,2.3-0.1,3.4-0.2c0.4,0,0.9,0,1.4,0s0.9,0,1.3-0.1c0.4,0,0.8,0,1.1,0c0.3,0,0.6,0,0.8,0l-0.5,4.3l-4,2.1
		c0.7,0.1,1.2,0.3,1.7,0.5s0.9,0.5,1.2,0.8c0.3,0.3,0.5,0.6,0.7,0.9c0.1,0.3,0.2,0.7,0.2,1.1C21.2,40.2,21.1,40.8,20.7,41.4z"/>
</g>
<g>
	<path class="st5" d="M19.6,39.2c-0.3,0.6-0.8,1.2-1.4,1.7s-1.2,0.9-2,1.3c-0.7,0.3-1.5,0.5-2.3,0.5c-0.5,0-0.9-0.1-1.3-0.2
		c-0.4-0.1-0.8-0.3-1.1-0.5s-0.5-0.5-0.7-0.8s-0.3-0.7-0.3-1.2c0-0.3,0.1-0.6,0.2-1l3.5-0.2c0,0.3,0.1,0.5,0.2,0.6s0.3,0.2,0.5,0.2
		s0.4,0,0.6-0.1c0.2-0.1,0.4-0.2,0.6-0.4c0.2-0.1,0.3-0.3,0.4-0.5s0.2-0.4,0.2-0.6c0-0.3-0.2-0.6-0.5-0.9s-0.8-0.4-1.5-0.4
		c-0.5,0-1,0-1.5,0.1s-0.9,0.1-1.3,0.2l0.4-3c0.4-0.3,0.8-0.5,1.2-0.8s0.8-0.6,1.2-0.8c0.4-0.3,0.8-0.6,1.2-0.9l-3.2,0.1L13,28
		c1.2-0.1,2.3-0.1,3.4-0.2c0.4,0,0.9,0,1.4,0s0.9,0,1.3-0.1c0.4,0,0.8,0,1.1,0c0.3,0,0.6,0,0.8,0L20.4,32l-4,2.1
		c0.7,0.1,1.2,0.3,1.7,0.5s0.9,0.5,1.2,0.8c0.3,0.3,0.5,0.6,0.7,0.9c0.1,0.3,0.2,0.7,0.2,1.1C20.1,37.9,20,38.6,19.6,39.2z"/>
</g>
</svg>
