<?xml version="1.0" encoding="utf-8"?>
<!-- Generator: Adobe Illustrator 22.0.1, SVG Export Plug-In . SVG Version: 6.00 Build 0)  -->
<svg version="1.1" id="Layer_1" xmlns="http://www.w3.org/2000/svg" xmlns:xlink="http://www.w3.org/1999/xlink" x="0px" y="0px"
	 width="419.2px" height="1019.8px" viewBox="0 0 419.2 1019.8" style="enable-background:new 0 0 419.2 1019.8;"
	 xml:space="preserve">
<style type="text/css">
	.st0{fill:#16162D;}
</style>
<polygon class="st0" points="396.2,1019.7 396.2,927.4 338.5,902.4 338.5,865.7 285.5,787.3 301,632.2 263.6,582.1 293.3,478.7 
	240.2,380.3 260.5,348.6 238.7,236.8 260.5,203.5 226.2,54.9 211.3,42.2 167.7,90.8 187.2,291.9 113.9,373.6 121.7,508.7 
	154.4,552.1 154.4,633.8 104.5,682.2 95.2,829 0,924.1 0,1019.8 "/>
<polygon points="419.2,1019.7 419.2,907.4 361.5,882.4 361.5,845.7 308.5,767.3 324,612.2 286.6,562.1 316.3,458.7 263.2,360.3 
	283.5,328.6 261.7,216.8 283.5,183.5 249.2,34.9 232,20 189.9,66.7 210.2,271.9 136.9,353.6 144.7,488.7 177.4,532.1 177.4,613.8 
	127.5,662.2 118.2,809 23,904.1 23,1019.8 "/>
</svg>
