<?xml version="1.0" encoding="utf-8"?>
<!-- Generator: Adobe Illustrator 22.0.1, SVG Export Plug-In . SVG Version: 6.00 Build 0)  -->
<svg version="1.1" id="Layer_1" xmlns="http://www.w3.org/2000/svg" xmlns:xlink="http://www.w3.org/1999/xlink" x="0px" y="0px"
	 viewBox="0 0 379.2 999.8" style="enable-background:new 0 0 379.2 999.8;" xml:space="preserve">
<style type="text/css">
	.st0{fill:#16162D;}
</style>
<polygon class="st0" points="376.2,999.7 376.2,907.4 318.5,882.4 318.5,845.7 285.4,767.3 301,612.2 263.6,562.1 293.2,458.7 
	240.2,360.3 260.5,328.6 238.6,216.8 260.5,183.5 226.1,34.9 209,20 166.9,66.7 187.1,271.9 113.8,353.6 121.6,488.7 154.4,532.1 
	154.4,613.8 104.5,662.2 95.1,809 0,904.1 0,999.8 "/>
<polygon points="379.2,999.7 379.2,887.4 341.5,862.4 341.5,825.7 308.4,747.3 324,592.2 286.6,542.1 316.2,438.7 263.2,340.3 
	283.5,308.6 261.6,196.8 283.5,163.5 249.1,14.9 232,0 189.9,46.7 210.1,251.9 136.8,333.6 144.6,468.7 177.4,512.1 177.4,593.8 
	127.5,642.2 118.1,789 23,884.1 23,999.8 "/>
</svg>
