<svg xmlns="http://www.w3.org/2000/svg" viewBox="0 0 973.98 926.33"><defs><style>.a{fill:#00560a;}.b{fill:#03ff33;}.c{fill:#05e019;}.d{fill:#00b21d;}.e{fill:#57ff73;}.f{fill:#05c920;}.g,.h,.i,.l,.m,.r{fill:none;stroke-miterlimit:10;}.g{stroke:#00b21d;}.h,.i{stroke:#70fc7d;}.h,.i,.m{stroke-width:5px;}.i,.m{stroke-linecap:round;}.j{fill:#06b216;}.k{fill:#03dd27;}.l{stroke:#02c923;}.m{stroke:#04bf0d;}.n{fill:#008710;}.o{fill:#a8a8a8;}.p{fill:#969696;}.q{fill:#757575;}.r{stroke:#969696;}</style></defs><title>pipes</title><polygon class="a" points="539.52 883.08 601.56 867.38 618.69 870.72 658.5 863.71 674.71 871.06 701.1 883.42 721.47 881.41 735.82 887.09 727.49 892.1 705.73 905.46 678.41 905.13 656.19 898.45 607.12 914.48 574.71 909.14 557.58 897.78 533.04 894.11 514.52 887.42 527.95 879.41 539.52 883.08"/><path class="b" d="M860,347.3a40,40,0,0,0-40,40L820,412a10,10,0,0,1-10,10H754.09a40,40,0,0,0-40,40v124.3H641.53V417a40,40,0,0,0-40-40H431.94a40,40,0,0,0-40,40V627H292.26a10,10,0,0,1-10-10V191.06a10,10,0,0,1,10-10H347a40,40,0,0,0,40-40V76.33H592.1a10,10,0,0,1,10,10V202.64a30,30,0,0,0,30,30h160.4a40,40,0,0,0,40-40V137.82a10,10,0,0,1,10-10h34.13V57.89H802.57a40,40,0,0,0-40,40v54.83a10,10,0,0,1-10,10H672V46.4a40,40,0,0,0-40-40h-315v94.73a10,10,0,0,1-10,10H252.34a40,40,0,0,0-40,40V412.79a10,10,0,0,1-10,10h-161V577.05h171v79.87a40,40,0,0,0,40,40h139.6V886.33a40,40,0,0,0,40,40H744a40,40,0,0,0,40-40V656.2H888.32V586.27H784V491.9h65.92a40,40,0,0,0,40-40V427.21a10,10,0,0,1,10-10h64.69V347.28Zm-431-316.21,8.18,3.6L481.11,19.3l12.11,3.27,28.15-6.87,11.45,7.2L551.48,35l14.4-2L576,38.61l-5.89,4.91L554.75,56.61l-19.31-.33-15.71-6.55L485,65.45l-22.91-5.24L450,49.09l-17.35-3.6-13.09-6.55ZM461.86,846.4V456.94a10,10,0,0,1,10-10H561.6a10,10,0,0,1,10,10V656.2H714.09V846.4a10,10,0,0,1-10,10H471.86A10,10,0,0,1,461.86,846.4Zm265.63,45.7-21.76,13.36-27.32-.33-22.22-6.68-49.07,16-32.41-5.34-17.13-11.36L533,894.11l-18.52-6.68,13.43-8,11.57,3.67,62-15.7,17.13,3.34,39.82-7,16.2,7.35,26.39,12.36,20.37-2,14.35,5.68Z"/><path class="c" d="M757.58,657.69V885.2a14,14,0,0,1-13.95,13.95H716l-10.28,6.31-27.32-.33-19.89-6H654l-46.93,15.33-32.41-5.34-15.06-10H432.08a14,14,0,0,1-13.95-13.95V697.34a27.67,27.67,0,0,0-27.67-27.67h-138a14,14,0,0,1-13.95-13.95V558.4h-22v99.95a34,34,0,0,0,33.95,33.95H384.94a11.2,11.2,0,0,1,11.2,11.2V887.83a34,34,0,0,0,33.95,33.95H741.73a38.47,38.47,0,0,0,38.47-38.47V657.69H757.58Z"/><polygon class="a" points="437.25 34.69 481.11 19.3 493.22 22.58 521.37 15.7 532.82 22.9 551.48 35.01 565.88 33.05 576.02 38.61 570.13 43.52 554.75 56.61 535.44 56.29 519.73 49.74 485.04 65.45 462.13 60.21 450.02 49.09 432.67 45.49 419.58 38.94 429.07 31.09 437.25 34.69"/><rect class="d" y="412.4" width="48.56" height="178.4" rx="4.4" ry="4.4"/><path class="c" d="M956,390.38H893.26a31,31,0,0,0-31,31v24a19.53,19.53,0,0,1-19.53,19.53H775.92a19.58,19.58,0,0,0-19.58,19.58v94.35H779V498.51a11,11,0,0,1,11-11h54.91a40,40,0,0,0,40-40V421a8,8,0,0,1,8-8H956V390.38Z"/><rect class="b" x="51.89" y="416.1" width="154.26" height="170.98" transform="translate(-372.57 630.62) rotate(-90)"/><rect class="e" x="98.59" y="433.82" width="5.88" height="111.55" transform="translate(591.13 388.07) rotate(90)"/><path class="c" d="M156.73,557.64v21.09H43.54V424.46h9S48.45,556.2,113.43,556.78Z"/><path class="b" d="M48.56,416.8V586.39a4.4,4.4,0,0,1-4.4,4.4H4.4a4.4,4.4,0,0,1-4.4-4.4V466.63l9.35-5.18L3,457.23l12-.79L0,448V416.8a4.4,4.4,0,0,1,4.4-4.4H44.16A4.4,4.4,0,0,1,48.56,416.8Z"/><path class="c" d="M0.06,590.79V524.88l1.75,2.42a48.14,48.14,0,0,0,37.33,19.89l9.37,0.33v43.28H0.06Z"/><rect class="e" x="21.29" y="476.69" width="5.88" height="48.45" transform="translate(525.14 476.69) rotate(90)"/><line class="f" x1="643.01" y1="588.03" x2="885.38" y2="588.03"/><path class="c" d="M597.43,630V440.76a20,20,0,0,0-20-20l-58,.07H454.32a20,20,0,0,0-20,20V620.37h22.52v-165a12,12,0,0,1,12-12h10.79c0.26,0,.52,0,0.79,0h85a9.37,9.37,0,0,1,9.37,9.37V652.61h308.6V630h-286Z"/><polyline class="g" points="10.39 456.33 17.89 455.63 27.57 459.05 38.7 453.93"/><polyline class="g" points="8.65 461.38 15.11 465.78 22.91 463.61 30.34 464.88"/><path class="h" d="M886.9,617.31H612.76V427.72A21.67,21.67,0,0,0,591.09,406H445.44A25.45,25.45,0,0,0,420,431.5V630.69"/><path class="h" d="M962.57,368.86H878a30.72,30.72,0,0,0-30.72,30.72v24a19.35,19.35,0,0,1-19.35,19.35h-86V582.26"/><path class="h" d="M545.69,29.42h77.79A21.52,21.52,0,0,1,645,50.95V183.19H763.58a20.77,20.77,0,0,0,20.77-20.77V111.56a24,24,0,0,1,24-24h62"/><path class="h" d="M545.69,29.42"/><path class="i" d="M553.75,875.45H448c-1.65,0-7.85-6.2-7.85-13.85V650.86H268.25a19,19,0,0,1-19-19V156.31a14.22,14.22,0,0,1,14.22-14.22h64.64A11.92,11.92,0,0,0,340,130.16V29.42h99"/><path class="i" d="M739.75,664.1V857.89a17.57,17.57,0,0,1-17.57,17.57H693.93"/><path class="c" d="M866.94,100.28H836.43a31.36,31.36,0,0,0-31.36,31.36v51.48a21.36,21.36,0,0,1-21.36,21.36H649.39A21.36,21.36,0,0,1,628,183.11V69.18a21.36,21.36,0,0,0-21.36-21.36h-41.6l-10.33,8.79-19.31-.33-15.71-6.55L485,65.45l-22.91-5.24L450,49.09l-6.08-1.26H374.67a17.73,17.73,0,0,0-17.73,17.73v79.59a7.73,7.73,0,0,1-7.73,7.73l-76.33,0a18.24,18.24,0,0,0-18.25,18.24V418.48h22.55v-234a9,9,0,0,1,9-9h0.91c0.11,0,.21,0,0.32,0H343A36.54,36.54,0,0,0,379.55,139V78.5a7.73,7.73,0,0,1,7.73-7.73H594a11.36,11.36,0,0,1,11.36,11.34l0.09,115a30,30,0,0,0,30,30H786.34a41.36,41.36,0,0,0,41.36-41.36V134.25a11.36,11.36,0,0,1,11.36-11.36h27.88a4.91,4.91,0,0,0,4.91-4.91V105.18A4.91,4.91,0,0,0,866.94,100.28Z"/><path class="c" d="M897.48,390.39l-6,22.55h66.86l0.23-65.69H954s7.84,42.49-25.47,42.75Z"/><path class="c" d="M831.55,122.81h39.86l0.23-64.69H867s7.74,42-25.57,42.28C841.08,100.4,831.55,122.81,831.55,122.81Z"/><path class="c" d="M822.89,630.59l-6,21.55h66.86L884,586.45h-4.6s7.84,43.49-25.47,43.75Z"/><rect class="j" x="744.97" y="547.3" width="8.09" height="69.92" transform="translate(166.76 1331.27) rotate(-90)"/><rect class="j" x="744.99" y="625.4" width="8.09" height="69.92" transform="translate(88.67 1409.39) rotate(-90)"/><path class="b" d="M899,583.81V602l-1,3.94-7.34.24,2.34,2.41,6,3.39v50.25a1.69,1.69,0,0,1-1.69,1.69H885.06a1.69,1.69,0,0,1-1.69-1.69V583.81a1.69,1.69,0,0,1,1.69-1.69h12.22A1.69,1.69,0,0,1,899,583.81Z"/><path class="k" d="M899,661.79V633.66l-0.56,1.11c-2.8,5.51-7.22,8.88-12,9.11l-3,.15v17.76a1.85,1.85,0,0,0,1.45,2.07H897.5A1.85,1.85,0,0,0,899,661.79Z"/><rect class="e" x="889.8" y="614.9" width="2.69" height="15.56" transform="translate(1513.83 -268.47) rotate(90)"/><path class="b" d="M974,344.82v18.52l-4,4.09,2-.26,2,1.57v54.44a1.69,1.69,0,0,1-1.69,1.69H960.06a1.69,1.69,0,0,1-1.69-1.69V344.82a1.69,1.69,0,0,1,1.69-1.69h12.22A1.69,1.69,0,0,1,974,344.82Z"/><path class="k" d="M974,422.8V394.68l-0.56,1.11c-2.8,5.51-7.22,8.88-12,9.11l-3,.15V422.8a1.85,1.85,0,0,0,1.45,2.07H972.5A1.85,1.85,0,0,0,974,422.8Z"/><rect class="e" x="964.81" y="375.91" width="2.69" height="15.56" transform="translate(1349.85 -582.46) rotate(90)"/><path class="b" d="M884,99.88l2,0.8v31.63a1.69,1.69,0,0,1-1.69,1.69H872.06a1.69,1.69,0,0,1-1.69-1.69V53.94a1.69,1.69,0,0,1,1.69-1.69h12.22A1.69,1.69,0,0,1,886,53.94V98l-1.84,1.22L882,98.51"/><path class="k" d="M886,131.92V103.8l-0.56,1.11c-2.8,5.51-7.22,8.88-12,9.11l-3,.15v17.76a1.85,1.85,0,0,0,1.45,2.07H884.5A1.85,1.85,0,0,0,886,131.92Z"/><rect class="e" x="876.81" y="85.03" width="2.69" height="15.56" transform="translate(970.97 -785.34) rotate(90)"/><polyline class="l" points="970.02 367.43 966.43 367.71 963.4 365.8 962.11 366.08"/><polyline class="l" points="874.31 96.59 877.91 96.58 880.79 98.71 882.1 98.53"/><polyline class="l" points="890.77 606.16 886.12 605 885.34 601.88"/><polyline class="l" points="892.93 608.54 889.5 610.44 886.47 609.74"/><line class="m" x1="632.77" y1="646.98" x2="669.52" y2="646.98"/><line class="m" x1="867.59" y1="646.98" x2="796.41" y2="646.98"/><line class="m" x1="743.94" y1="646.98" x2="719.52" y2="646.98"/><line class="m" x1="420.48" y1="65.84" x2="396.06" y2="65.84"/><line class="m" x1="722.32" y1="915.58" x2="666.52" y2="915.58"/><line class="m" x1="741.7" y1="915.58" x2="732.24" y2="915.58"/><line class="m" x1="314.1" y1="686.72" x2="258.3" y2="686.72"/><line class="m" x1="333.47" y1="686.72" x2="324.01" y2="686.72"/><line class="m" x1="766.17" y1="221.62" x2="756.71" y2="221.62"/><line class="m" x1="572.05" y1="915.58" x2="547.63" y2="915.58"/><line class="m" x1="526.38" y1="438.5" x2="501.96" y2="438.5"/><path class="m" d="M548.07,438.31h16.14a15.89,15.89,0,0,1,15.89,15.89v12.85"/><path class="m" d="M434.1,916.06h-5.49a26.54,26.54,0,0,1-26.54-26.54v-2.2"/><path class="m" d="M878.71,439.7V422.44a14.77,14.77,0,0,1,14.77-14.77h14"/><path class="m" d="M823.22,151.15V133.89A14.77,14.77,0,0,1,838,119.12h14"/><path class="m" d="M577.52,66h17.26a14.77,14.77,0,0,1,14.77,14.77v14"/><polygon class="n" points="576.02 38.61 565.88 33.05 551.48 35.01 521.37 15.7 493.22 22.58 481.11 19.3 437.25 34.69 429.07 31.09 419.58 38.94 422.83 40.55 428.63 35.77 436.81 39.37 480.66 23.99 492.77 27.26 520.92 20.39 551.03 39.7 565.43 37.74 572.47 41.58 576.02 38.61"/><polygon class="n" points="735.82 887.09 721.47 881.41 701.1 883.42 658.5 863.71 618.69 870.72 601.56 867.38 539.52 883.08 527.95 879.41 514.52 887.42 519.11 889.07 527.32 884.19 538.89 887.87 600.93 872.16 618.06 875.5 657.87 868.49 700.47 888.2 720.84 886.2 730.79 890.12 735.82 887.09"/><rect class="o" x="128.52" y="415.63" width="161" height="169.88" rx="4.64" ry="4.64"/><rect class="o" x="310.59" width="87.29" height="87.29" rx="5" ry="5"/><rect class="o" x="384.8" y="617.55" width="87.29" height="87.29" rx="5" ry="5"/><rect class="o" x="564.47" y="576.35" width="87.29" height="87.29" rx="5" ry="5"/><rect class="o" x="594.96" y="153.9" width="87.29" height="87.29" rx="5" ry="5"/><rect class="o" x="705.51" y="416.49" width="87.29" height="87.29" rx="5" ry="5"/><polygon class="o" points="402.79 632.16 397.73 632.16 395.2 636.54 397.73 640.92 402.79 640.92 405.31 636.54 402.79 632.16"/><path class="p" d="M469.49,678.47L449.86,693.2l-11.33-34.38-27.64,13.59,2-18.48L391,636l4.62-14.44h69.84a4.31,4.31,0,0,1,4.32,4.36C469.61,639.29,469.25,678.71,469.49,678.47Z"/><polygon class="q" points="394.95 623.36 392.18 623.36 390.22 625.32 390.22 628.09 392.18 630.05 394.95 630.05 396.91 628.09 396.91 625.32 394.95 623.36"/><polygon class="q" points="464.87 623.36 462.1 623.36 460.14 625.32 460.14 628.09 462.1 630.05 464.87 630.05 466.83 628.09 466.83 625.32 464.87 623.36"/><path class="p" d="M623.51,578.9l14.72,19.63-20.79,39-18.48-2-17.9,21.94-14.44-4.62V583a4.31,4.31,0,0,1,4.36-4.32C584.33,578.78,623.75,579.14,623.51,578.9Z"/><path class="p" d="M752,420.25l10.74,14.32L747.6,463l-13.48-1.47-13.05,16-10.53-3.37V423.22a3.15,3.15,0,0,1,3.18-3.15C723.45,420.17,752.2,420.43,752,420.25Z"/><polygon class="q" points="394.95 692.47 392.18 692.47 390.22 694.43 390.22 697.2 392.18 699.16 394.95 699.16 396.91 697.2 396.91 694.43 394.95 692.47"/><polygon class="q" points="464.87 692.47 462.1 692.47 460.14 694.43 460.14 697.2 462.1 699.16 464.87 699.16 466.83 697.2 466.83 694.43 464.87 692.47"/><polygon class="q" points="574 583.36 571.23 583.36 569.27 585.32 569.27 588.09 571.23 590.05 574 590.05 575.96 588.09 575.96 585.32 574 583.36"/><polygon class="q" points="643.93 583.36 641.16 583.36 639.2 585.32 639.2 588.09 641.16 590.05 643.93 590.05 645.89 588.09 645.89 585.32 643.93 583.36"/><polygon class="q" points="574 652.47 571.23 652.47 569.27 654.43 569.27 657.2 571.23 659.16 574 659.16 575.96 657.2 575.96 654.43 574 652.47"/><polygon class="q" points="643.93 652.47 641.16 652.47 639.2 654.43 639.2 657.2 641.16 659.16 643.93 659.16 645.89 657.2 645.89 654.43 643.93 652.47"/><path class="p" d="M622.16,239.31l-14.72-19.63,34.38-11.33L628.22,180.7l18.48,2,17.9-21.94L679,165.39v69.84a4.31,4.31,0,0,1-4.36,4.32C661.33,239.42,621.92,239.07,622.16,239.31Z"/><path class="p" d="M334.78,84.2L320.06,64.56l34.38-11.33,16.41-3.64-11.52-22,17.9-21.94,14.44,4.62V80.13a4.31,4.31,0,0,1-4.36,4.32C374,84.31,334.54,84,334.78,84.2Z"/><polygon class="q" points="715.52 422.61 712.75 422.61 710.79 424.57 710.79 427.34 712.75 429.3 715.52 429.3 717.48 427.34 717.48 424.57 715.52 422.61"/><polygon class="q" points="785.44 422.61 782.67 422.61 780.71 424.57 780.71 427.34 782.67 429.3 785.44 429.3 787.4 427.34 787.4 424.57 785.44 422.61"/><polygon class="q" points="715.52 491.72 712.75 491.72 710.79 493.68 710.79 496.45 712.75 498.4 715.52 498.4 717.48 496.45 717.48 493.68 715.52 491.72"/><polygon class="q" points="785.44 491.72 782.67 491.72 780.71 493.68 780.71 496.45 782.67 498.4 785.44 498.4 787.4 496.45 787.4 493.68 785.44 491.72"/><polygon class="q" points="604.23 159.72 601.46 159.72 599.5 161.68 599.5 164.45 601.46 166.41 604.23 166.41 606.19 164.45 606.19 161.68 604.23 159.72"/><polygon class="q" points="674.15 159.72 671.38 159.72 669.42 161.68 669.42 164.45 671.38 166.41 674.15 166.41 676.11 164.45 676.11 161.68 674.15 159.72"/><polygon class="q" points="604.23 228.83 601.46 228.83 599.5 230.79 599.5 233.56 601.46 235.52 604.23 235.52 606.19 233.56 606.19 230.79 604.23 228.83"/><polygon class="q" points="674.15 228.83 671.38 228.83 669.42 230.79 669.42 233.56 671.38 235.52 674.15 235.52 676.11 233.56 676.11 230.79 674.15 228.83"/><polygon class="q" points="319.41 6.77 316.64 6.77 314.68 8.73 314.68 11.5 316.64 13.46 319.41 13.46 321.37 11.5 321.37 8.73 319.41 6.77"/><polygon class="q" points="389.33 6.77 386.56 6.77 384.6 8.73 384.6 11.5 386.56 13.46 389.33 13.46 391.29 11.5 391.29 8.73 389.33 6.77"/><polygon class="q" points="319.41 75.88 316.64 75.88 314.68 77.84 314.68 80.61 316.64 82.57 319.41 82.57 321.37 80.61 321.37 77.84 319.41 75.88"/><polygon class="q" points="389.33 75.88 386.56 75.88 384.6 77.84 384.6 80.61 386.56 82.57 389.33 82.57 391.29 80.61 391.29 77.84 389.33 75.88"/><polygon class="q" points="277.98 428.63 272.76 428.63 269.07 432.32 269.07 437.54 272.76 441.23 277.98 441.23 281.67 437.54 281.67 432.32 277.98 428.63"/><polygon class="q" points="146.25 558.82 141.03 558.82 137.34 562.5 137.34 567.73 141.03 571.42 146.25 571.42 149.95 567.73 149.95 562.5 146.25 558.82"/><path class="p" d="M185.53,416.23l14.72,19.63-20.79,39-18.48-2-17.9,21.94-14.44-4.62V420.3A4.31,4.31,0,0,1,133,416C146.35,416.11,185.77,416.47,185.53,416.23Z"/><polygon class="q" points="277.98 558.82 272.76 558.82 269.07 562.5 269.07 567.73 272.76 571.42 277.98 571.42 281.67 567.73 281.67 562.5 277.98 558.82"/><polygon class="q" points="146.25 428.63 141.03 428.63 137.34 432.32 137.34 437.54 141.03 441.23 146.25 441.23 149.95 437.54 149.95 432.32 146.25 428.63"/><polyline class="r" points="214.39 416.74 221.23 423.06 214.39 435.68 218.08 444.1"/><polyline class="r" points="289.39 502.56 280.7 507.13 253.09 495.21 240.47 489.76"/><line class="r" x1="246.41" y1="501.65" x2="253.09" y2="495.21"/><polyline class="r" points="417.01 704.22 423.63 689.33 418.66 678.57"/><polyline class="r" points="619.89 663.34 613.06 659.5 617.76 654.37"/><line class="r" x1="614.86" y1="657.17" x2="612.13" y2="654.45"/><polyline class="r" points="792.05 469.81 784.33 470.15 780.29 477.54"/></svg>