<?xml version="1.0" encoding="utf-8"?>
<!-- Generator: Adobe Illustrator 22.0.1, SVG Export Plug-In . SVG Version: 6.00 Build 0)  -->
<svg version="1.1" id="Layer_1" xmlns="http://www.w3.org/2000/svg" xmlns:xlink="http://www.w3.org/1999/xlink" x="0px" y="0px"
	 viewBox="0 0 3540.6 324.6" style="enable-background:new 0 0 3540.6 324.6;" xml:space="preserve">
<style type="text/css">
	.st0{fill:#121223;}
</style>
<polygon class="st0" points="0,0 0,134.9 37.1,236.5 190.1,236.5 277.5,161.6 332.1,185.7 347.4,255.2 500.3,281.1 548.4,160.8 
	640.1,160.8 653.2,198.2 738.4,200.9 758.1,176.8 804,195 769,236.5 804,284.6 865.2,209.7 904.5,228.5 946,158.9 1029,118.8 
	1105.5,201.7 1179.8,153.5 1230,188.4 1273.7,148.2 1308.7,177.7 1350.2,142.9 1420.1,231.1 1496.6,177.7 1496.6,132.2 
	1553.4,118.8 1575.2,167 1557.7,201.7 1623.3,284.6 1682.2,214.7 1690.1,236.5 1832.8,236.5 1819.5,257.8 1913.5,324.6 
	1985.9,208.8 1991.7,215.9 2000.4,255.2 2153.3,281.1 2201.4,160.8 2293.1,160.8 2306.2,198.2 2391.4,200.9 2411.1,176.8 2457,195 
	2422,236.5 2457,284.6 2518.2,209.7 2557.5,228.5 2599,158.9 2682,158.8 2758.5,201.7 2832.8,153.5 2883,188.4 2926.7,148.2 
	2961.7,177.7 3003.2,142.9 3073.1,231.1 3149.6,177.7 3149.6,132.2 3206.4,118.8 3228.2,167 3210.7,201.7 3346.2,201.7 
	3407.4,188.4 3383.3,156.3 3427,168.8 3433.6,198.1 3453.2,222.2 3472.9,198.1 3494.7,222.2 3540.6,217.9 3538.8,0 "/>
</svg>
