<?xml version="1.0" encoding="utf-8"?>
<!-- Generator: Adobe Illustrator 22.0.1, SVG Export Plug-In . SVG Version: 6.00 Build 0)  -->
<svg version="1.1" xmlns="http://www.w3.org/2000/svg" xmlns:xlink="http://www.w3.org/1999/xlink" x="0px" y="0px"
	 viewBox="0 0 1920 1080" style="enable-background:new 0 0 1920 1080;" xml:space="preserve">
<style type="text/css">
	.st0{fill:#FBAB04;}
	.st1{fill:#E59016;}
	.st2{fill:#1D1838;}
	.st3{fill:url(#SVGID_1_);}
	.st4{fill:url(#SVGID_2_);}
	.st5{fill:url(#SVGID_3_);}
	.st6{fill:url(#SVGID_4_);}
	.st7{fill:url(#SVGID_5_);}
	.st8{fill:url(#SVGID_6_);}
	.st9{fill:#3C3261;}
	.st10{fill:url(#SVGID_7_);}
	.st11{fill:url(#SVGID_8_);}
	.st12{fill:#16142D;}
	.st13{fill:url(#SVGID_9_);}
	.st14{fill:url(#SVGID_10_);}
	.st15{fill:url(#SVGID_11_);}
	.st16{fill:url(#SVGID_12_);}
	.st17{fill:#0E0C21;}
	.st18{clip-path:url(#SVGID_14_);fill:#2C2A5B;}
	.st19{clip-path:url(#SVGID_14_);fill:#222045;}
	.st20{clip-path:url(#SVGID_14_);fill:#1C1A37;}
	.st21{clip-path:url(#SVGID_14_);fill:#121223;}
	.st22{clip-path:url(#SVGID_14_);fill:#0E0E1C;}
	.st23{clip-path:url(#SVGID_14_);}
	.st24{clip-path:url(#SVGID_14_);fill:url(#SVGID_15_);}
	.st25{clip-path:url(#SVGID_14_);fill:url(#SVGID_16_);}
	.st26{clip-path:url(#SVGID_14_);fill:url(#SVGID_17_);}
	.st27{clip-path:url(#SVGID_14_);fill:url(#SVGID_18_);}
	.st28{clip-path:url(#SVGID_14_);fill:url(#SVGID_19_);}
	.st29{clip-path:url(#SVGID_14_);fill:url(#SVGID_20_);}
	.st30{clip-path:url(#SVGID_14_);fill:url(#SVGID_21_);}
	.st31{clip-path:url(#SVGID_14_);fill:#080811;}
	.st32{clip-path:url(#SVGID_14_);fill:url(#SVGID_22_);}
	.st33{clip-path:url(#SVGID_14_);fill:url(#SVGID_23_);}
	.st34{clip-path:url(#SVGID_14_);fill:url(#SVGID_24_);}
	.st35{fill:#18182D;}
	.st36{display:none;}
	.st37{display:inline;fill:#6DF206;}
</style>
<g id="Layer_1">
</g>
<g id="Layer_2">
	<defs>
		<rect id="SVGID_13_" y="0" width="1920" height="1079.6"/>
	</defs>
	<clipPath id="SVGID_1_">
		<use xlink:href="#SVGID_13_"  style="overflow:visible;"/>
	</clipPath>
	<rect x="0" y="0" style="clip-path:url(#SVGID_1_);fill:#2C2A5B;" width="1921.9" height="1079.7"/>
	<polygon style="clip-path:url(#SVGID_1_);fill:#222045;" points="-1.9,782.8 33.3,704.3 177.9,704.3 260.5,762.2 312.2,743.6 
		326.7,689.8 471.3,669.8 516.8,762.8 603.6,762.8 616,733.9 696.5,731.8 715.1,750.4 758.5,736.3 725.5,704.3 758.5,667.1 
		816.4,725 853.6,710.5 892.8,764.2 971.4,795.2 1043.7,731.2 1113.9,787 1161.5,741.5 1202.8,772.5 1235.9,749.8 1275.1,776.6 
		1341.2,708.4 1413.6,749.8 1413.6,784.9 1467.3,795.2 1487.9,758 1471.4,731.2 1533.4,667.1 1599.5,731.2 1624.3,710.5 
		1657.4,741.5 1634.7,746.3 1676,775.2 1719.4,753.9 1682.2,734 1700.8,715.4 1719.4,734 1740,715.4 1719,687.9 1807.9,636.2 
		1876.4,725.7 1897.1,705.1 1921.9,725.7 1921.9,1090.7 -1.9,1090.7 	"/>
	<polygon style="clip-path:url(#SVGID_1_);fill:#222045;" points="1923.7,303.2 1888.6,381.7 1744,381.7 1661.3,323.9 1609.7,342.5 
		1595.2,396.2 1450.6,416.2 1405.1,323.2 1318.3,323.2 1305.9,352.2 1225.3,354.2 1206.7,335.6 1163.3,349.7 1196.4,381.7 
		1163.3,418.9 1105.5,361.1 1068.3,375.5 1029,321.8 950.5,290.8 878.2,354.9 807.9,299.1 760.4,344.6 719.1,313.6 686,336.3 
		646.8,309.4 580.6,377.6 508.3,336.3 508.3,301.2 454.6,290.8 433.9,328 450.5,354.9 388.5,418.9 322.3,354.9 297.6,375.5 
		264.5,344.6 287.2,319.8 245.9,290.8 202.5,312.2 239.7,352.1 221.1,370.7 202.5,352.1 181.8,370.7 202.8,398.2 114,449.9 
		45.5,360.3 24.8,381 0,360.3 0,-4.6 1923.7,-4.6 	"/>
	<polygon style="clip-path:url(#SVGID_1_);fill:#1C1A37;" points="1921.9,928.8 1886.7,850.3 1742.1,850.3 1659.5,908.2 
		1607.8,889.6 1593.3,835.8 1448.7,815.8 1403.2,908.8 1316.4,908.8 1304,879.9 1223.5,877.8 1204.9,896.4 1161.5,882.3 
		1194.5,850.3 1161.5,813.1 1103.6,871 1066.4,856.5 1027.2,910.2 948.6,941.2 876.3,877.2 806.1,933 758.5,887.5 717.2,918.5 
		684.1,895.8 644.9,922.6 578.8,854.4 506.4,895.8 506.4,930.9 452.7,941.2 432.1,904 448.6,877.2 386.6,813.1 320.5,877.2 
		295.7,856.5 262.6,887.5 285.3,892.3 244,921.2 200.6,899.9 237.8,880 219.2,861.4 200.6,880 180,861.4 201,833.9 112.1,782.2 
		43.6,871.7 22.9,851.1 -1.9,871.7 -1.9,1236.7 1921.9,1236.7 	"/>
	<polygon style="clip-path:url(#SVGID_1_);fill:#1C1A37;" points="0,170 35.1,214.6 179.8,214.6 262.4,181.8 314.1,192.3 
		328.5,222.8 473.2,234.2 518.6,181.4 605.4,181.4 617.8,197.8 698.4,199 717,188.4 760.4,196.4 727.3,214.6 760.4,235.7 
		818.3,202.9 855.5,211.1 894.7,180.6 973.2,163 1045.6,199.4 1115.8,167.7 1163.3,193.5 1204.7,175.9 1237.7,188.8 1277,173.6 
		1343.1,212.3 1415.4,188.8 1415.4,168.9 1469.2,163 1489.8,184.1 1473.3,199.4 1535.3,235.7 1601.4,199.4 1626.2,211.1 
		1659.3,193.5 1636.5,179.4 1677.9,163 1721.2,175.1 1684.1,197.8 1702.7,208.3 1721.2,197.8 1741.9,208.3 1720.9,223.9 
		1809.8,253.2 1878.3,202.5 1899,214.2 1923.7,202.5 1923.7,-4.6 0,-4.6 	"/>
	<polygon style="clip-path:url(#SVGID_1_);fill:#121223;" points="0,-12.8 35.1,65.7 179.8,65.7 262.4,7.9 314.1,26.5 328.5,80.2 
		473.2,100.2 518.6,7.2 605.4,7.2 617.8,36.2 698.4,38.2 717,19.6 760.4,33.7 727.3,65.7 760.4,102.9 818.3,45.1 855.5,59.5 
		894.7,5.8 973.2,-25.2 1045.6,38.9 1115.8,-16.9 1163.3,28.6 1204.7,-2.4 1237.7,20.3 1277,-6.6 1343.1,61.6 1415.4,20.3 
		1415.4,-14.8 1469.2,-25.2 1489.8,12 1473.3,38.9 1535.3,102.9 1601.4,38.9 1626.2,59.5 1659.3,28.6 1636.5,3.8 1677.9,-25.2 
		1721.2,-3.8 1684.1,36.1 1702.7,54.7 1721.2,36.1 1741.9,54.7 1720.9,82.2 1809.8,133.9 1878.3,44.3 1899,65 1923.7,44.3 
		1923.7,-70.6 0,-70.6 	"/>
	<polygon style="clip-path:url(#SVGID_1_);fill:#0E0E1C;" points="1897.7,1010.4 1854.5,962.5 1854.5,873.4 1798.4,897.4 
		1798.4,965.9 1779.6,959.3 1757.3,969.3 1757.3,1010.4 1625.5,1062.1 1603.2,1072.1 1603.2,1120 1897.7,1120 	"/>
	<polygon style="clip-path:url(#SVGID_1_);" points="1920,1000.4 1876.8,952.5 1876.8,863.4 1820.7,887.4 1820.7,955.9 
		1779.6,959.3 1779.6,1000.4 1676.9,1027.5 1625.5,1062.1 1625.5,1110 1920,1110 	"/>
	
		<linearGradient id="SVGID_2_" gradientUnits="userSpaceOnUse" x1="11670.0898" y1="216.7823" x2="11813.9131" y2="216.7823" gradientTransform="matrix(1 0 0 1 -10946.4707 811.8978)">
		<stop  offset="0" style="stop-color:#000000"/>
		<stop  offset="0.1431" style="stop-color:#050005"/>
		<stop  offset="0.321" style="stop-color:#150015"/>
		<stop  offset="0.5166" style="stop-color:#2E002E"/>
		<stop  offset="0.5509" style="stop-color:#330033"/>
		<stop  offset="0.7016" style="stop-color:#1C001C"/>
		<stop  offset="0.8811" style="stop-color:#080008"/>
		<stop  offset="1" style="stop-color:#000000"/>
	</linearGradient>
	<rect x="728.5" y="981.2" style="clip-path:url(#SVGID_1_);fill:url(#SVGID_2_);" width="136.3" height="95"/>
	<linearGradient id="SVGID_3_" gradientUnits="userSpaceOnUse" x1="867.4354" y1="994.7501" x2="704.8737" y2="994.7501">
		<stop  offset="0" style="stop-color:#000000"/>
		<stop  offset="0.3338" style="stop-color:#280028"/>
		<stop  offset="0.4202" style="stop-color:#330033"/>
		<stop  offset="0.6147" style="stop-color:#1C001C"/>
		<stop  offset="0.8465" style="stop-color:#080008"/>
		<stop  offset="1" style="stop-color:#000000"/>
	</linearGradient>
	<path style="clip-path:url(#SVGID_1_);fill:url(#SVGID_3_);" d="M864.6,1008.3c0,0-42.6-12.2-73.2-4.1c-11.8,3.1-24.1,3.2-35.9-0.1
		c-24.2-6.8-27.4,1.1-27.4,1.1v-24.2h136.6V1008.3z"/>
	
		<linearGradient id="SVGID_4_" gradientUnits="userSpaceOnUse" x1="11664.3359" y1="152.2574" x2="11821.9766" y2="152.2574" gradientTransform="matrix(1 0 0 1 -10946.4707 811.8978)">
		<stop  offset="0" style="stop-color:#000000"/>
		<stop  offset="0.1431" style="stop-color:#050005"/>
		<stop  offset="0.321" style="stop-color:#150015"/>
		<stop  offset="0.5166" style="stop-color:#2E002E"/>
		<stop  offset="0.5509" style="stop-color:#330033"/>
		<stop  offset="0.7016" style="stop-color:#1C001C"/>
		<stop  offset="0.8811" style="stop-color:#080008"/>
		<stop  offset="1" style="stop-color:#000000"/>
	</linearGradient>
	<path style="clip-path:url(#SVGID_1_);fill:url(#SVGID_4_);" d="M871.6,985.6H721.8c-2.1,0-3.9-1.7-3.9-3.9v-35.1
		c0-2.1,1.7-3.9,3.9-3.9h149.9c2.1,0,3.9,1.7,3.9,3.9v35.1C875.5,983.9,873.8,985.6,871.6,985.6z"/>
	<polygon style="clip-path:url(#SVGID_1_);fill:#0E0E1C;" points="-43.1,1007.1 96.1,881.6 203.8,881.6 253.8,912.5 281,955.6 
		278.9,987.5 419.2,986 477,1041.2 558.4,1041.2 600.4,993.9 658.2,991.3 729.1,1070.1 729.1,1112.1 -43.1,1112.1 	"/>
	<path style="clip-path:url(#SVGID_1_);fill:#080811;" d="M1514.1-3.5l-2.3-43.5l-41.3-31.7V-140l48.2-43.5l-0.1-7.7
		c-3.3,0.4-6.5,0.9-9.7,1.5c-33.8,5.7-66.4,16-100.3,21.1V50h36.7L1514.1-3.5z"/>
	<path style="clip-path:url(#SVGID_1_);fill:#080811;" d="M1893.1-8.4l-2.3-43.5l-41.3-31.7V-145l48.2-43.5l-0.1-7.7
		c-3.3,0.4-6.5,0.9-9.7,1.5c-33.8,5.7-66.4,16-100.3,21.1l-70,144.5l70,74.1h36.7L1893.1-8.4z"/>
	<polygon style="clip-path:url(#SVGID_1_);" points="0,1004.9 139.2,881.5 246.9,881.5 296.9,910.4 324.1,953.5 322,985.3 
		462.3,983.9 520.1,1039.1 601.5,1039.1 643.5,991.8 701.3,989.2 772.2,1068 772.2,1110 0,1110 	"/>
	
		<linearGradient id="SVGID_5_" gradientUnits="userSpaceOnUse" x1="11825.2295" y1="596.2401" x2="11969.0527" y2="596.2401" gradientTransform="matrix(-1 0 0 -1 12875.8418 606.9899)">
		<stop  offset="0" style="stop-color:#000000"/>
		<stop  offset="0.1431" style="stop-color:#050005"/>
		<stop  offset="0.321" style="stop-color:#150015"/>
		<stop  offset="0.5166" style="stop-color:#2E002E"/>
		<stop  offset="0.5509" style="stop-color:#330033"/>
		<stop  offset="0.7016" style="stop-color:#1C001C"/>
		<stop  offset="0.8811" style="stop-color:#080008"/>
		<stop  offset="1" style="stop-color:#000000"/>
	</linearGradient>
	<polygon style="clip-path:url(#SVGID_1_);fill:url(#SVGID_5_);" points="909.4,-36.8 1045.7,-36.8 1045.7,58.3 909.4,58.3 	"/>
	
		<linearGradient id="SVGID_6_" gradientUnits="userSpaceOnUse" x1="1022.5752" y1="1374.2079" x2="860.0135" y2="1374.2079" gradientTransform="matrix(-1 0 0 -1 1929.3708 1418.8877)">
		<stop  offset="0" style="stop-color:#000000"/>
		<stop  offset="0.3338" style="stop-color:#280028"/>
		<stop  offset="0.4202" style="stop-color:#330033"/>
		<stop  offset="0.6147" style="stop-color:#1C001C"/>
		<stop  offset="0.8465" style="stop-color:#080008"/>
		<stop  offset="1" style="stop-color:#000000"/>
	</linearGradient>
	<path style="clip-path:url(#SVGID_1_);fill:url(#SVGID_6_);" d="M909.7,31.1c0,0,42.6,12.2,73.2,4.1c11.8-3.1,24.1-3.2,35.9,0.1
		c24.2,6.8,27.4-1.1,27.4-1.1v24.2H909.7V31.1z"/>
	
		<linearGradient id="SVGID_7_" gradientUnits="userSpaceOnUse" x1="11819.4756" y1="531.7152" x2="11977.1162" y2="531.7152" gradientTransform="matrix(-1 0 0 -1 12875.8418 606.9899)">
		<stop  offset="0" style="stop-color:#000000"/>
		<stop  offset="0.1431" style="stop-color:#050005"/>
		<stop  offset="0.321" style="stop-color:#150015"/>
		<stop  offset="0.5166" style="stop-color:#2E002E"/>
		<stop  offset="0.5509" style="stop-color:#330033"/>
		<stop  offset="0.7016" style="stop-color:#1C001C"/>
		<stop  offset="0.8811" style="stop-color:#080008"/>
		<stop  offset="1" style="stop-color:#000000"/>
	</linearGradient>
	<path style="clip-path:url(#SVGID_1_);fill:url(#SVGID_7_);" d="M902.6,53.8h149.9c2.1,0,3.9,1.7,3.9,3.9v35.1
		c0,2.1-1.7,3.9-3.9,3.9H902.6c-2.1,0-3.9-1.7-3.9-3.9V57.7C898.7,55.6,900.5,53.8,902.6,53.8z"/>
	<path style="clip-path:url(#SVGID_1_);fill:#080811;" d="M1067,33.7l43.5-2.3l31.7-41.3h61.4l43.5,48.2l7.7-0.1
		c-0.4-3.3-2-13-1.5-9.7c1.5,9.7,70.8-90.9,70.8-90.9l-310.6-9.5v36.7L1067,33.7z"/>
</g>
<g id="Layer_4">
</g>
<g id="Layer_3" class="st36">
	<circle class="st37" cx="991.7" cy="569.6" r="35.8"/>
	<circle class="st37" cx="991.7" cy="447.7" r="35.8"/>
	<circle class="st37" cx="991.7" cy="325.8" r="35.8"/>
	<circle class="st37" cx="841.1" cy="630.5" r="35.8"/>
	<circle class="st37" cx="687.5" cy="508.6" r="35.8"/>
	<circle class="st37" cx="841.1" cy="386.7" r="35.8"/>
	<circle class="st37" cx="991.7" cy="691.5" r="35.8"/>
	<polygon class="st37" points="840.1,369.7 671.7,369.7 671.7,386.7 671.7,403.8 671.7,508.6 705.8,508.6 705.8,403.8 840.1,403.8 	
		"/>
	<polygon class="st37" points="840.1,648.6 671.7,648.6 671.7,631.6 671.7,614.5 671.7,509.7 705.8,509.7 705.8,614.5 840.1,614.5 	
		"/>
</g>
</svg>
